<svg xmlns="http://www.w3.org/2000/svg" xmlns:xlink="http://www.w3.org/1999/xlink" width="1366" zoomAndPan="magnify" viewBox="0 0 1024.5 576" height="768" preserveAspectRatio="xMidYMid meet" version="1.0"><defs><g/><clipPath id="9ef6f46fbb"><path d="M 0 0.140625 L 1024 0.140625 L 1024 575.859375 L 0 575.859375 Z M 0 0.140625 " clip-rule="nonzero"/></clipPath></defs><g clip-path="url(#9ef6f46fbb)"><path fill="#ffffff" d="M 0 0.140625 L 1024 0.140625 L 1024 575.859375 L 0 575.859375 Z M 0 0.140625 " fill-opacity="1" fill-rule="nonzero"/><path fill="#ffffff" d="M 0 0.140625 L 1024 0.140625 L 1024 575.859375 L 0 575.859375 Z M 0 0.140625 " fill-opacity="1" fill-rule="nonzero"/></g><g fill="#000000" fill-opacity="1"><g transform="translate(270.47652, 365.65185)"><g><path d="M 36.015625 1.90625 C 30.347656 1.90625 24.953125 1.269531 19.828125 0 C 14.710938 -1.269531 10.300781 -2.976562 6.59375 -5.125 L 8.34375 -24.734375 C 12.738281 -22.003906 17.347656 -19.882812 22.171875 -18.375 C 27.003906 -16.863281 31.472656 -16.109375 35.578125 -16.109375 C 40.253906 -16.109375 44.054688 -17.082031 46.984375 -19.03125 C 49.921875 -20.976562 51.390625 -23.566406 51.390625 -26.796875 C 51.390625 -29.421875 50.410156 -31.441406 48.453125 -32.859375 C 46.503906 -34.273438 43.429688 -35.8125 39.234375 -37.46875 L 35.71875 -38.9375 C 35.226562 -39.132812 34.691406 -39.351562 34.109375 -39.59375 C 33.523438 -39.84375 32.84375 -40.113281 32.0625 -40.40625 C 26.59375 -42.644531 22.195312 -44.765625 18.875 -46.765625 C 15.5625 -48.765625 12.707031 -51.570312 10.3125 -55.1875 C 7.925781 -58.800781 6.734375 -63.488281 6.734375 -69.25 C 6.734375 -78.613281 9.90625 -85.976562 16.25 -91.34375 C 22.59375 -96.71875 31.425781 -99.40625 42.75 -99.40625 C 51.332031 -99.40625 60.113281 -97.644531 69.09375 -94.125 L 65.875 -74.8125 C 62.257812 -76.851562 58.378906 -78.457031 54.234375 -79.625 C 50.085938 -80.800781 46.160156 -81.390625 42.453125 -81.390625 C 37.867188 -81.390625 34.304688 -80.488281 31.765625 -78.6875 C 29.222656 -76.882812 27.953125 -74.46875 27.953125 -71.4375 C 27.953125 -68.800781 28.832031 -66.75 30.59375 -65.28125 C 32.351562 -63.820312 35.1875 -62.265625 39.09375 -60.609375 L 45.09375 -58.265625 C 50.75 -56.117188 55.429688 -54.019531 59.140625 -51.96875 C 62.847656 -49.914062 66.019531 -46.960938 68.65625 -43.109375 C 71.289062 -39.253906 72.609375 -34.253906 72.609375 -28.109375 C 72.609375 -18.640625 69.382812 -11.269531 62.9375 -6 C 56.5 -0.726562 47.523438 1.90625 36.015625 1.90625 Z M 36.015625 1.90625 "/></g></g></g><g fill="#000000" fill-opacity="1"><g transform="translate(349.667825, 365.65185)"><g><path d="M 34.546875 2.046875 C 26.546875 2.046875 20.25 -0.390625 15.65625 -5.265625 C 11.070312 -10.148438 8.78125 -16.835938 8.78125 -25.328125 L 8.78125 -75.390625 L 29.421875 -75.390625 L 29.421875 -28.6875 C 29.421875 -24.6875 30.394531 -21.585938 32.34375 -19.390625 C 34.300781 -17.203125 36.9375 -16.109375 40.25 -16.109375 C 43.570312 -16.109375 46.769531 -17.179688 49.84375 -19.328125 C 52.914062 -21.472656 55.476562 -24.347656 57.53125 -27.953125 L 57.53125 -75.390625 L 78.171875 -75.390625 L 78.171875 0 L 57.53125 0 L 57.53125 -9.953125 C 54.695312 -6.148438 51.453125 -3.195312 47.796875 -1.09375 C 44.140625 1 39.722656 2.046875 34.546875 2.046875 Z M 34.546875 2.046875 "/></g></g></g><g fill="#000000" fill-opacity="1"><g transform="translate(437.349152, 365.65185)"><g><path d="M 9.953125 -75.390625 L 30.59375 -75.390625 L 30.59375 -63.09375 L 31.765625 -63.09375 C 34.597656 -68.070312 37.40625 -71.734375 40.1875 -74.078125 C 42.96875 -76.421875 46.457031 -77.59375 50.65625 -77.59375 C 52.40625 -77.59375 53.867188 -77.394531 55.046875 -77 L 52.84375 -54.75 C 50.3125 -55.4375 48.265625 -55.78125 46.703125 -55.78125 C 44.453125 -55.78125 42.472656 -55.335938 40.765625 -54.453125 C 39.054688 -53.578125 37.539062 -52.40625 36.21875 -50.9375 C 34.90625 -49.476562 33.03125 -47.234375 30.59375 -44.203125 L 30.59375 0 L 9.953125 0 Z M 9.953125 -75.390625 "/></g></g></g><g fill="#000000" fill-opacity="1"><g transform="translate(495.754557, 365.65185)"><g><path d="M 6.734375 -17.71875 L 20.0625 -17.71875 L 20.0625 -57.671875 L 6.734375 -57.671875 L 6.734375 -75.390625 L 20.0625 -75.390625 L 20.0625 -84.609375 C 20.0625 -91.929688 22.398438 -97.8125 27.078125 -102.25 C 31.765625 -106.695312 38.007812 -108.921875 45.8125 -108.921875 C 51.28125 -108.921875 57.332031 -107.550781 63.96875 -104.8125 L 56.796875 -88.5625 C 53.484375 -90.226562 50.507812 -91.0625 47.875 -91.0625 C 45.625 -91.0625 43.863281 -90.425781 42.59375 -89.15625 C 41.332031 -87.882812 40.703125 -86.03125 40.703125 -83.59375 L 40.703125 -75.390625 L 58.265625 -75.390625 L 58.265625 -57.671875 L 40.703125 -57.671875 L 40.703125 -17.71875 L 58.265625 -17.71875 L 58.265625 0 L 6.734375 0 Z M 6.734375 -17.71875 "/></g></g></g><g fill="#000000" fill-opacity="1"><g transform="translate(561.918075, 365.65185)"><g/></g></g><g fill="#000000" fill-opacity="1"><g transform="translate(591.193956, 365.65185)"><g><path d="M 55.78125 1.90625 C 40.164062 1.90625 27.960938 -2.289062 19.171875 -10.6875 C 10.390625 -19.082031 6 -30.941406 6 -46.265625 C 6 -56.703125 8.070312 -65.921875 12.21875 -73.921875 C 16.363281 -81.929688 22.242188 -88.101562 29.859375 -92.4375 C 37.472656 -96.78125 46.257812 -98.953125 56.21875 -98.953125 C 64.3125 -98.953125 72.117188 -97.488281 79.640625 -94.5625 L 75.6875 -75.6875 C 69.050781 -78.707031 62.609375 -80.21875 56.359375 -80.21875 C 47.472656 -80.21875 40.441406 -77.3125 35.265625 -71.5 C 30.097656 -65.695312 27.515625 -57.96875 27.515625 -48.3125 C 27.515625 -38.457031 30.25 -30.796875 35.71875 -25.328125 C 41.1875 -19.859375 48.75 -17.125 58.40625 -17.125 C 64.75 -17.125 70.898438 -18.148438 76.859375 -20.203125 L 80.078125 -2.203125 C 72.953125 0.535156 64.851562 1.90625 55.78125 1.90625 Z M 55.78125 1.90625 "/></g></g></g><g fill="#000000" fill-opacity="1"><g transform="translate(678.143374, 365.65185)"><g><path d="M 9.515625 -106.859375 L 30.15625 -106.859375 L 30.15625 -64.40625 C 33.175781 -68.894531 36.640625 -72.1875 40.546875 -74.28125 C 44.453125 -76.382812 48.941406 -77.4375 54.015625 -77.4375 C 62.117188 -77.4375 68.460938 -75.019531 73.046875 -70.1875 C 77.628906 -65.363281 79.921875 -58.65625 79.921875 -50.0625 L 79.921875 0 L 59.28125 0 L 59.28125 -46.84375 C 59.28125 -50.75 58.304688 -53.796875 56.359375 -55.984375 C 54.410156 -58.179688 51.773438 -59.28125 48.453125 -59.28125 C 44.835938 -59.28125 41.394531 -58.035156 38.125 -55.546875 C 34.863281 -53.066406 32.207031 -49.773438 30.15625 -45.671875 L 30.15625 0 L 9.515625 0 Z M 9.515625 -106.859375 "/></g></g></g><g fill="#000000" fill-opacity="1"><g transform="translate(766.849322, 365.65185)"><g><path d="M 31.328125 2.203125 C 23.515625 2.203125 17.316406 -1.113281 12.734375 -7.75 C 8.148438 -14.394531 5.859375 -23.425781 5.859375 -34.84375 C 5.859375 -48.695312 9.367188 -59.257812 16.390625 -66.53125 C 23.421875 -73.800781 33.523438 -77.4375 46.703125 -77.4375 C 54.117188 -77.4375 62.800781 -76.265625 72.75 -73.921875 L 72.75 0 L 53.140625 0 L 53.578125 -12 L 53 -12 C 50.457031 -7.414062 47.351562 -3.898438 43.6875 -1.453125 C 40.03125 0.984375 35.910156 2.203125 31.328125 2.203125 Z M 35.71875 -15.8125 C 38.738281 -15.8125 41.710938 -17.421875 44.640625 -20.640625 C 47.578125 -23.859375 50.3125 -28.15625 52.84375 -33.53125 L 52.84375 -58.109375 C 49.71875 -58.992188 46.597656 -59.4375 43.484375 -59.4375 C 37.617188 -59.4375 33.195312 -57.4375 30.21875 -53.4375 C 27.25 -49.4375 25.765625 -43.53125 25.765625 -35.71875 C 25.765625 -29.570312 26.640625 -24.71875 28.390625 -21.15625 C 30.148438 -17.59375 32.59375 -15.8125 35.71875 -15.8125 Z M 35.71875 -15.8125 "/></g></g></g><g fill="#000000" fill-opacity="1"><g transform="translate(848.382711, 365.65185)"><g><path d="M 31.328125 2.203125 C 26.546875 2.203125 21.929688 1.710938 17.484375 0.734375 C 13.046875 -0.242188 9.265625 -1.5625 6.140625 -3.21875 L 8.046875 -20.78125 C 11.367188 -18.738281 15.03125 -17.082031 19.03125 -15.8125 C 23.03125 -14.539062 26.785156 -13.90625 30.296875 -13.90625 C 33.617188 -13.90625 36.398438 -14.515625 38.640625 -15.734375 C 40.890625 -16.953125 42.015625 -18.734375 42.015625 -21.078125 C 42.015625 -22.929688 41.234375 -24.367188 39.671875 -25.390625 C 38.109375 -26.421875 35.128906 -27.71875 30.734375 -29.28125 L 26.796875 -30.734375 C 22.597656 -32.296875 19.179688 -33.785156 16.546875 -35.203125 C 13.910156 -36.617188 11.515625 -38.789062 9.359375 -41.71875 C 7.210938 -44.644531 6.140625 -48.5 6.140625 -53.28125 C 6.140625 -60.894531 8.992188 -66.820312 14.703125 -71.0625 C 20.421875 -75.3125 27.863281 -77.4375 37.03125 -77.4375 C 44.257812 -77.4375 51.875 -76.023438 59.875 -73.203125 L 57.09375 -55.78125 C 54.257812 -57.4375 51.0625 -58.773438 47.5 -59.796875 C 43.9375 -60.828125 40.59375 -61.34375 37.46875 -61.34375 C 34.25 -61.34375 31.6875 -60.800781 29.78125 -59.71875 C 27.882812 -58.644531 26.9375 -57.085938 26.9375 -55.046875 C 26.9375 -53.085938 27.71875 -51.617188 29.28125 -50.640625 C 30.84375 -49.671875 33.476562 -48.550781 37.1875 -47.28125 C 40.113281 -46.207031 41.820312 -45.570312 42.3125 -45.375 C 46.40625 -43.71875 49.816406 -42.109375 52.546875 -40.546875 C 55.285156 -38.984375 57.675781 -36.664062 59.71875 -33.59375 C 61.769531 -30.519531 62.796875 -26.59375 62.796875 -21.8125 C 62.796875 -13.8125 59.914062 -7.804688 54.15625 -3.796875 C 48.40625 0.203125 40.796875 2.203125 31.328125 2.203125 Z M 31.328125 2.203125 "/></g></g></g><g fill="#000000" fill-opacity="1"><g transform="translate(917.034668, 365.65185)"><g><path d="M 45.09375 2.203125 C 32.894531 2.203125 23.304688 -1.3125 16.328125 -8.34375 C 9.347656 -15.375 5.859375 -25.132812 5.859375 -37.625 C 5.859375 -45.71875 7.367188 -52.765625 10.390625 -58.765625 C 13.421875 -64.773438 17.691406 -69.390625 23.203125 -72.609375 C 28.710938 -75.828125 35.175781 -77.4375 42.59375 -77.4375 C 53.53125 -77.4375 61.925781 -73.921875 67.78125 -66.890625 C 73.632812 -59.867188 76.5625 -49.722656 76.5625 -36.453125 C 76.5625 -34.203125 76.515625 -32.539062 76.421875 -31.46875 L 26.640625 -31.46875 C 27.617188 -26.300781 29.863281 -22.375 33.375 -19.6875 C 36.882812 -17 41.617188 -15.65625 47.578125 -15.65625 C 51.191406 -15.65625 54.945312 -16.117188 58.84375 -17.046875 C 62.75 -17.972656 66.164062 -19.21875 69.09375 -20.78125 L 72.46875 -4.25 C 68.5625 -2.195312 64.238281 -0.609375 59.5 0.515625 C 54.769531 1.640625 49.96875 2.203125 45.09375 2.203125 Z M 56.796875 -46.984375 C 56.503906 -51.179688 55.039062 -54.523438 52.40625 -57.015625 C 49.769531 -59.503906 46.257812 -60.75 41.875 -60.75 C 37.675781 -60.75 34.234375 -59.53125 31.546875 -57.09375 C 28.859375 -54.65625 27.175781 -51.285156 26.5 -46.984375 Z M 56.796875 -46.984375 "/></g></g></g><path fill="#624cf5" d="M 173.082031 274.175781 C 109.605469 248.152344 69.011719 340.808594 129.730469 379.085938 C 90.824219 362.492188 78.921875 304.214844 117.757812 276.34375 C 67.761719 277.617188 51.808594 339.214844 67.285156 378.308594 C 26.058594 300.378906 106.941406 225.027344 190.207031 278.160156 C 174.394531 256.082031 148.527344 241.6875 119.296875 241.6875 C 82.921875 241.6875 51.753906 263.96875 38.695312 295.625 C 39.066406 291.265625 39.695312 286.898438 40.597656 282.535156 C 41.648438 277.464844 43.0625 272.40625 44.855469 267.394531 C 65.644531 209.3125 129.578125 179.078125 187.664062 199.867188 C 245.746094 220.652344 275.980469 284.589844 255.191406 342.671875 C 252.394531 350.496094 248.808594 357.816406 244.5625 364.570312 C 178.570312 386.625 138.707031 355.421875 138.707031 355.421875 C 165.164062 393.554688 224.691406 378.101562 237.617188 374.394531 C 202.601562 391.332031 142.738281 386.988281 126.816406 345.59375 C 113.308594 310.46875 136.828125 264.597656 173.085938 274.175781 Z M 261.832031 345.050781 C 283.933594 283.296875 251.789062 215.320312 190.035156 193.222656 C 128.28125 171.121094 60.304688 203.265625 38.207031 265.019531 C 16.105469 326.773438 48.25 394.75 110.003906 416.847656 C 171.757812 438.949219 239.734375 406.804688 261.832031 345.050781 Z M 261.832031 345.050781 " fill-opacity="1" fill-rule="evenodd"/></svg>