<svg xmlns="http://www.w3.org/2000/svg" xmlns:xlink="http://www.w3.org/1999/xlink" width="500" zoomAndPan="magnify" viewBox="0 0 375 374.999991" height="500" preserveAspectRatio="xMidYMid meet" version="1.0"><defs><g/></defs><rect x="-37.5" width="450" fill="#ffffff" y="-37.499999" height="449.999989" fill-opacity="1"/><rect x="-37.5" width="450" fill="#ffffff" y="-37.499999" height="449.999989" fill-opacity="1"/><g fill="#774dc6" fill-opacity="1"><g transform="translate(111.309277, 222.56628)"><g><path d="M 9.671875 0.515625 C 8.148438 0.515625 6.703125 0.34375 5.328125 0 C 3.953125 -0.34375 2.765625 -0.800781 1.765625 -1.375 L 2.234375 -6.640625 C 3.421875 -5.910156 4.660156 -5.34375 5.953125 -4.9375 C 7.253906 -4.53125 8.457031 -4.328125 9.5625 -4.328125 C 10.8125 -4.328125 11.828125 -4.585938 12.609375 -5.109375 C 13.398438 -5.640625 13.796875 -6.335938 13.796875 -7.203125 C 13.796875 -7.910156 13.535156 -8.453125 13.015625 -8.828125 C 12.492188 -9.210938 11.671875 -9.625 10.546875 -10.0625 L 9.59375 -10.46875 C 9.46875 -10.519531 9.320312 -10.578125 9.15625 -10.640625 C 9 -10.703125 8.816406 -10.773438 8.609375 -10.859375 C 7.140625 -11.460938 5.957031 -12.03125 5.0625 -12.5625 C 4.175781 -13.101562 3.410156 -13.859375 2.765625 -14.828125 C 2.128906 -15.796875 1.8125 -17.054688 1.8125 -18.609375 C 1.8125 -21.117188 2.660156 -23.09375 4.359375 -24.53125 C 6.066406 -25.976562 8.441406 -26.703125 11.484375 -26.703125 C 13.785156 -26.703125 16.144531 -26.226562 18.5625 -25.28125 L 17.703125 -20.09375 C 16.734375 -20.644531 15.691406 -21.078125 14.578125 -21.390625 C 13.460938 -21.703125 12.40625 -21.859375 11.40625 -21.859375 C 10.175781 -21.859375 9.21875 -21.613281 8.53125 -21.125 C 7.851562 -20.644531 7.515625 -20 7.515625 -19.1875 C 7.515625 -18.476562 7.75 -17.925781 8.21875 -17.53125 C 8.6875 -17.144531 9.445312 -16.726562 10.5 -16.28125 L 12.109375 -15.65625 C 13.628906 -15.070312 14.890625 -14.503906 15.890625 -13.953125 C 16.890625 -13.410156 17.738281 -12.617188 18.4375 -11.578125 C 19.144531 -10.546875 19.5 -9.203125 19.5 -7.546875 C 19.5 -5.003906 18.632812 -3.023438 16.90625 -1.609375 C 15.175781 -0.191406 12.765625 0.515625 9.671875 0.515625 Z M 9.671875 0.515625 "/></g></g></g><g fill="#774dc6" fill-opacity="1"><g transform="translate(132.585811, 222.56628)"><g><path d="M 9.28125 0.546875 C 7.132812 0.546875 5.441406 -0.101562 4.203125 -1.40625 C 2.972656 -2.71875 2.359375 -4.515625 2.359375 -6.796875 L 2.359375 -20.25 L 7.90625 -20.25 L 7.90625 -7.703125 C 7.90625 -6.628906 8.164062 -5.796875 8.6875 -5.203125 C 9.21875 -4.617188 9.925781 -4.328125 10.8125 -4.328125 C 11.707031 -4.328125 12.566406 -4.613281 13.390625 -5.1875 C 14.210938 -5.769531 14.898438 -6.546875 15.453125 -7.515625 L 15.453125 -20.25 L 21 -20.25 L 21 0 L 15.453125 0 L 15.453125 -2.671875 C 14.691406 -1.648438 13.816406 -0.859375 12.828125 -0.296875 C 11.847656 0.265625 10.664062 0.546875 9.28125 0.546875 Z M 9.28125 0.546875 "/></g></g></g><g fill="#774dc6" fill-opacity="1"><g transform="translate(156.14338, 222.56628)"><g><path d="M 2.671875 -20.25 L 8.21875 -20.25 L 8.21875 -16.953125 L 8.53125 -16.953125 C 9.289062 -18.285156 10.046875 -19.265625 10.796875 -19.890625 C 11.546875 -20.523438 12.484375 -20.84375 13.609375 -20.84375 C 14.078125 -20.84375 14.46875 -20.789062 14.78125 -20.6875 L 14.203125 -14.703125 C 13.515625 -14.890625 12.960938 -14.984375 12.546875 -14.984375 C 11.941406 -14.984375 11.410156 -14.863281 10.953125 -14.625 C 10.492188 -14.394531 10.085938 -14.082031 9.734375 -13.6875 C 9.378906 -13.289062 8.875 -12.6875 8.21875 -11.875 L 8.21875 0 L 2.671875 0 Z M 2.671875 -20.25 "/></g></g></g><g fill="#774dc6" fill-opacity="1"><g transform="translate(171.835312, 222.56628)"><g><path d="M 1.8125 -4.765625 L 5.390625 -4.765625 L 5.390625 -15.5 L 1.8125 -15.5 L 1.8125 -20.25 L 5.390625 -20.25 L 5.390625 -22.734375 C 5.390625 -24.703125 6.015625 -26.28125 7.265625 -27.46875 C 8.523438 -28.664062 10.207031 -29.265625 12.3125 -29.265625 C 13.78125 -29.265625 15.40625 -28.894531 17.1875 -28.15625 L 15.265625 -23.796875 C 14.367188 -24.242188 13.566406 -24.46875 12.859375 -24.46875 C 12.253906 -24.46875 11.78125 -24.296875 11.4375 -23.953125 C 11.101562 -23.609375 10.9375 -23.109375 10.9375 -22.453125 L 10.9375 -20.25 L 15.65625 -20.25 L 15.65625 -15.5 L 10.9375 -15.5 L 10.9375 -4.765625 L 15.65625 -4.765625 L 15.65625 0 L 1.8125 0 Z M 1.8125 -4.765625 "/></g></g></g><g fill="#774dc6" fill-opacity="1"><g transform="translate(189.611636, 222.56628)"><g/></g></g><g fill="#774dc6" fill-opacity="1"><g transform="translate(197.477263, 222.56628)"><g><path d="M 14.984375 0.515625 C 10.785156 0.515625 7.503906 -0.609375 5.140625 -2.859375 C 2.785156 -5.117188 1.609375 -8.304688 1.609375 -12.421875 C 1.609375 -15.234375 2.164062 -17.710938 3.28125 -19.859375 C 4.394531 -22.003906 5.972656 -23.660156 8.015625 -24.828125 C 10.066406 -25.992188 12.429688 -26.578125 15.109375 -26.578125 C 17.273438 -26.578125 19.367188 -26.1875 21.390625 -25.40625 L 20.328125 -20.328125 C 18.546875 -21.140625 16.816406 -21.546875 15.140625 -21.546875 C 12.753906 -21.546875 10.863281 -20.765625 9.46875 -19.203125 C 8.082031 -17.648438 7.390625 -15.578125 7.390625 -12.984375 C 7.390625 -10.328125 8.125 -8.265625 9.59375 -6.796875 C 11.0625 -5.328125 13.09375 -4.59375 15.6875 -4.59375 C 17.394531 -4.59375 19.046875 -4.867188 20.640625 -5.421875 L 21.515625 -0.59375 C 19.597656 0.144531 17.421875 0.515625 14.984375 0.515625 Z M 14.984375 0.515625 "/></g></g></g><g fill="#774dc6" fill-opacity="1"><g transform="translate(220.838189, 222.56628)"><g><path d="M 2.5625 -28.703125 L 8.109375 -28.703125 L 8.109375 -17.296875 C 8.921875 -18.503906 9.847656 -19.390625 10.890625 -19.953125 C 11.941406 -20.515625 13.148438 -20.796875 14.515625 -20.796875 C 16.691406 -20.796875 18.394531 -20.144531 19.625 -18.84375 C 20.851562 -17.550781 21.46875 -15.753906 21.46875 -13.453125 L 21.46875 0 L 15.921875 0 L 15.921875 -12.578125 C 15.921875 -13.628906 15.660156 -14.445312 15.140625 -15.03125 C 14.617188 -15.625 13.910156 -15.921875 13.015625 -15.921875 C 12.046875 -15.921875 11.117188 -15.585938 10.234375 -14.921875 C 9.359375 -14.253906 8.648438 -13.367188 8.109375 -12.265625 L 8.109375 0 L 2.5625 0 Z M 2.5625 -28.703125 "/></g></g></g><g fill="#774dc6" fill-opacity="1"><g transform="translate(244.671046, 222.56628)"><g><path d="M 8.421875 0.59375 C 6.316406 0.59375 4.648438 -0.296875 3.421875 -2.078125 C 2.191406 -3.867188 1.578125 -6.296875 1.578125 -9.359375 C 1.578125 -13.078125 2.519531 -15.910156 4.40625 -17.859375 C 6.289062 -19.816406 9.003906 -20.796875 12.546875 -20.796875 C 14.535156 -20.796875 16.867188 -20.484375 19.546875 -19.859375 L 19.546875 0 L 14.28125 0 L 14.390625 -3.21875 L 14.234375 -3.21875 C 13.554688 -1.988281 12.722656 -1.046875 11.734375 -0.390625 C 10.753906 0.265625 9.648438 0.59375 8.421875 0.59375 Z M 9.59375 -4.25 C 10.40625 -4.25 11.203125 -4.679688 11.984375 -5.546875 C 12.773438 -6.410156 13.515625 -7.5625 14.203125 -9 L 14.203125 -15.609375 C 13.359375 -15.847656 12.519531 -15.96875 11.6875 -15.96875 C 10.113281 -15.96875 8.925781 -15.429688 8.125 -14.359375 C 7.320312 -13.285156 6.921875 -11.695312 6.921875 -9.59375 C 6.921875 -7.945312 7.15625 -6.644531 7.625 -5.6875 C 8.101562 -4.726562 8.757812 -4.25 9.59375 -4.25 Z M 9.59375 -4.25 "/></g></g></g><g fill="#774dc6" fill-opacity="1"><g transform="translate(266.576833, 222.56628)"><g><path d="M 8.421875 0.59375 C 7.128906 0.59375 5.882812 0.457031 4.6875 0.1875 C 3.5 -0.0703125 2.488281 -0.421875 1.65625 -0.859375 L 2.15625 -5.578125 C 3.050781 -5.035156 4.035156 -4.59375 5.109375 -4.25 C 6.179688 -3.90625 7.191406 -3.734375 8.140625 -3.734375 C 9.035156 -3.734375 9.78125 -3.894531 10.375 -4.21875 C 10.976562 -4.550781 11.28125 -5.03125 11.28125 -5.65625 C 11.28125 -6.15625 11.070312 -6.539062 10.65625 -6.8125 C 10.238281 -7.09375 9.441406 -7.441406 8.265625 -7.859375 L 7.203125 -8.265625 C 6.066406 -8.679688 5.144531 -9.078125 4.4375 -9.453125 C 3.726562 -9.835938 3.085938 -10.421875 2.515625 -11.203125 C 1.941406 -11.992188 1.65625 -13.03125 1.65625 -14.3125 C 1.65625 -16.363281 2.421875 -17.957031 3.953125 -19.09375 C 5.484375 -20.226562 7.484375 -20.796875 9.953125 -20.796875 C 11.890625 -20.796875 13.929688 -20.414062 16.078125 -19.65625 L 15.34375 -14.984375 C 14.582031 -15.429688 13.722656 -15.789062 12.765625 -16.0625 C 11.804688 -16.34375 10.90625 -16.484375 10.0625 -16.484375 C 9.195312 -16.484375 8.507812 -16.335938 8 -16.046875 C 7.488281 -15.753906 7.234375 -15.332031 7.234375 -14.78125 C 7.234375 -14.257812 7.441406 -13.867188 7.859375 -13.609375 C 8.285156 -13.347656 8.992188 -13.046875 9.984375 -12.703125 C 10.773438 -12.410156 11.234375 -12.238281 11.359375 -12.1875 C 12.460938 -11.738281 13.378906 -11.304688 14.109375 -10.890625 C 14.847656 -10.472656 15.492188 -9.847656 16.046875 -9.015625 C 16.597656 -8.191406 16.875 -7.140625 16.875 -5.859375 C 16.875 -3.710938 16.097656 -2.097656 14.546875 -1.015625 C 13.003906 0.0546875 10.960938 0.59375 8.421875 0.59375 Z M 8.421875 0.59375 "/></g></g></g><g fill="#774dc6" fill-opacity="1"><g transform="translate(285.021733, 222.56628)"><g><path d="M 12.109375 0.59375 C 8.835938 0.59375 6.265625 -0.347656 4.390625 -2.234375 C 2.515625 -4.128906 1.578125 -6.753906 1.578125 -10.109375 C 1.578125 -12.285156 1.984375 -14.175781 2.796875 -15.78125 C 3.609375 -17.394531 4.753906 -18.632812 6.234375 -19.5 C 7.710938 -20.363281 9.445312 -20.796875 11.4375 -20.796875 C 14.375 -20.796875 16.628906 -19.851562 18.203125 -17.96875 C 19.773438 -16.082031 20.5625 -13.359375 20.5625 -9.796875 C 20.5625 -9.191406 20.550781 -8.742188 20.53125 -8.453125 L 7.15625 -8.453125 C 7.414062 -7.066406 8.015625 -6.007812 8.953125 -5.28125 C 9.898438 -4.5625 11.175781 -4.203125 12.78125 -4.203125 C 13.75 -4.203125 14.757812 -4.328125 15.8125 -4.578125 C 16.863281 -4.828125 17.78125 -5.160156 18.5625 -5.578125 L 19.46875 -1.140625 C 18.414062 -0.585938 17.253906 -0.160156 15.984375 0.140625 C 14.710938 0.441406 13.421875 0.59375 12.109375 0.59375 Z M 15.265625 -12.625 C 15.179688 -13.75 14.785156 -14.644531 14.078125 -15.3125 C 13.367188 -15.988281 12.425781 -16.328125 11.25 -16.328125 C 10.125 -16.328125 9.195312 -16 8.46875 -15.34375 C 7.75 -14.6875 7.300781 -13.78125 7.125 -12.625 Z M 15.265625 -12.625 "/></g></g></g></svg>