<svg xmlns="http://www.w3.org/2000/svg" xmlns:xlink="http://www.w3.org/1999/xlink" width="500" zoomAndPan="magnify" viewBox="0 0 375 374.999991" height="500" preserveAspectRatio="xMidYMid meet" version="1.0"><rect x="-37.5" width="450" fill="#ffffff" y="-37.499999" height="449.999989" fill-opacity="1"/><rect x="-37.5" width="450" fill="#ffffff" y="-37.499999" height="449.999989" fill-opacity="1"/><path fill="#774dc6" d="M 83.296875 199.714844 C 66.964844 193.019531 56.519531 216.859375 72.140625 226.707031 C 62.132812 222.4375 59.070312 207.445312 69.0625 200.273438 C 56.199219 200.601562 52.09375 216.449219 56.074219 226.507812 C 45.46875 206.457031 66.277344 187.070312 87.703125 200.742188 C 83.632812 195.0625 76.976562 191.359375 69.457031 191.359375 C 60.097656 191.359375 52.078125 197.089844 48.71875 205.234375 C 48.816406 204.113281 48.976562 202.988281 49.210938 201.867188 C 49.480469 200.5625 49.84375 199.261719 50.304688 197.972656 C 55.652344 183.027344 72.101562 175.25 87.046875 180.597656 C 101.992188 185.945312 109.769531 202.394531 104.421875 217.339844 C 103.699219 219.351562 102.777344 221.234375 101.6875 222.972656 C 84.707031 228.648438 74.449219 220.621094 74.449219 220.621094 C 81.257812 230.429688 96.574219 226.453125 99.898438 225.5 C 90.890625 229.859375 75.488281 228.742188 71.390625 218.089844 C 67.914062 209.054688 73.96875 197.253906 83.296875 199.714844 Z M 106.128906 217.953125 C 111.816406 202.0625 103.546875 184.574219 87.65625 178.886719 C 71.769531 173.203125 54.28125 181.472656 48.59375 197.359375 C 42.90625 213.25 51.175781 230.738281 67.066406 236.425781 C 82.953125 242.109375 100.445312 233.839844 106.128906 217.953125 Z M 106.128906 217.953125 " fill-opacity="1" fill-rule="evenodd"/></svg>